<svg width="24" height="24" viewBox="0 0 24 24" fill="none" xmlns="http://www.w3.org/2000/svg">
<g clip-path="url(#clip0_32_41)">
<path d="M11.9998 8.61145C10.1314 8.61145 8.61133 10.1315 8.61133 12C8.61133 13.8684 10.1314 15.3885 11.9998 15.3885C13.8683 15.3885 15.3884 13.8684 15.3884 12C15.3884 10.1315 13.8683 8.61145 11.9998 8.61145ZM11.9998 14.1134C10.8345 14.1134 9.88643 13.1653 9.88643 12C9.88643 10.8346 10.8345 9.88656 11.9998 9.88656C13.1652 9.88656 14.1133 10.8346 14.1133 12C14.1133 13.1653 13.1652 14.1134 11.9998 14.1134Z" fill="#847C7C"/>
<path d="M20.4852 3.51568C18.2188 1.24936 15.2055 0.00118058 12.0005 0.000976562C12.0003 0.000976562 12.0001 0.000976562 11.9999 0.000976562C11.9997 0.000976562 11.9994 0.000976562 11.9992 0.000976562C8.79415 0.00112958 5.78097 1.24936 3.5146 3.51568C1.24818 5.78216 0 8.79559 0 12.0009C0 15.2062 1.24823 18.2196 3.5147 20.4862C5.78108 22.7525 8.79425 24.0006 11.9993 24.0009C11.9995 24.0009 11.9998 24.0009 12 24.0009C12.0002 24.0009 12.0004 24.0009 12.0006 24.0009C15.2056 24.0007 18.2189 22.7524 20.4853 20.4862C22.7518 18.2196 24 15.2062 24 12.0009C24 8.79564 22.7517 5.78216 20.4852 3.51568ZM12.6375 22.7062V18.8836C12.6375 18.5315 12.352 18.246 11.9999 18.246C11.6479 18.246 11.3624 18.5315 11.3624 18.8836V22.7062C5.95541 22.3876 1.61316 18.0454 1.29454 12.6385H5.11721C5.46929 12.6385 5.75476 12.3529 5.75476 12.0009C5.75476 11.6489 5.46929 11.3633 5.11721 11.3633H1.29454C1.61316 5.95639 5.95541 1.61419 11.3624 1.29557V5.11823C11.3624 5.47032 11.6478 5.75579 11.9999 5.75579C12.352 5.75579 12.6375 5.47032 12.6375 5.11823V1.29557C18.0444 1.61419 22.3867 5.95639 22.7053 11.3633H18.8826C18.5306 11.3633 18.2451 11.6488 18.2451 12.0009C18.2451 12.353 18.5306 12.6385 18.8826 12.6385H22.7053C22.3867 18.0454 18.0444 22.3876 12.6375 22.7062Z" fill="#847C7C"/>
</g>
<defs>
<clipPath id="clip0_32_41">
<rect width="24" height="24" fill="white"/>
</clipPath>
</defs>
</svg>
