<svg width="24" height="24" viewBox="0 0 24 24" fill="none" xmlns="http://www.w3.org/2000/svg">
<g clip-path="url(#clip0_20_191)">
<path d="M19.9799 12.9363C19.5845 12.9363 19.2641 13.2568 19.2641 13.652V20.9155H4.73683V13.652C4.73683 13.2568 4.41645 12.9363 4.02106 12.9363C3.62567 12.9363 3.3053 13.2568 3.3053 13.652V21.6313C3.3053 22.0266 3.62567 22.3471 4.02106 22.3471H19.9799C20.3753 22.3471 20.6956 22.0266 20.6956 21.6313V13.652C20.6956 13.2568 20.3752 12.9363 19.9799 12.9363Z" fill="#8E8E8E"/>
<path d="M23.7903 13.1461L12.5054 1.86244C12.2259 1.58291 11.7727 1.58301 11.4932 1.86244L0.209648 13.1461C-0.0698826 13.4256 -0.0698826 13.8788 0.209648 14.1582C0.349461 14.298 0.532697 14.3679 0.715837 14.3679C0.899073 14.3679 1.08221 14.2981 1.22203 14.1582L11.9995 3.38073L22.7782 14.1582C23.0576 14.4378 23.5109 14.4377 23.7905 14.1581C24.0698 13.8787 24.0698 13.4255 23.7903 13.1461Z" fill="#8E8E8E"/>
</g>
<defs>
<clipPath id="clip0_20_191">
<rect width="24" height="24" fill="white"/>
</clipPath>
</defs>
</svg>
