<svg width="24" height="24" viewBox="0 0 24 24" fill="none" xmlns="http://www.w3.org/2000/svg">
<path d="M11.25 21C11.25 21.1989 11.329 21.3897 11.4697 21.5303C11.6103 21.671 11.8011 21.75 12 21.75H16C17.2593 21.7484 18.4665 21.2475 19.357 20.357C20.2475 19.4666 20.7484 18.2593 20.75 17V7C20.7484 5.74071 20.2475 4.53345 19.357 3.643C18.4665 2.75254 17.2593 2.25159 16 2.25H12C11.8011 2.25 11.6103 2.32902 11.4697 2.46967C11.329 2.61032 11.25 2.80109 11.25 3C11.25 3.19891 11.329 3.38968 11.4697 3.53033C11.6103 3.67098 11.8011 3.75 12 3.75H16C16.8616 3.75106 17.6877 4.09381 18.2969 4.70307C18.9062 5.31234 19.2489 6.13837 19.25 7V17C19.2489 17.8616 18.9062 18.6877 18.2969 19.2969C17.6877 19.9062 16.8616 20.2489 16 20.25H12C11.8011 20.25 11.6103 20.329 11.4697 20.4697C11.329 20.6103 11.25 20.8011 11.25 21ZM3.47 11.47L7.47 7.47C7.53922 7.3984 7.622 7.3413 7.71353 7.30204C7.80505 7.26278 7.90347 7.24214 8.00306 7.24132C8.10264 7.2405 8.20139 7.25952 8.29354 7.29728C8.3857 7.33503 8.46941 7.39076 8.5398 7.46121C8.61018 7.53166 8.66583 7.61543 8.7035 7.70762C8.74117 7.79981 8.7601 7.89858 8.75919 7.99816C8.75827 8.09774 8.73754 8.19615 8.69819 8.28763C8.65884 8.37912 8.60166 8.46185 8.53 8.531L5.811 11.25H14C14.1989 11.25 14.3897 11.329 14.5303 11.4697C14.671 11.6103 14.75 11.8011 14.75 12C14.75 12.1989 14.671 12.3897 14.5303 12.5303C14.3897 12.671 14.1989 12.75 14 12.75H5.811L8.53 15.47C8.66669 15.6114 8.74237 15.8008 8.74076 15.9975C8.73914 16.1941 8.66035 16.3822 8.52136 16.5214C8.38237 16.6605 8.1943 16.7395 7.99765 16.7413C7.801 16.7431 7.61152 16.6676 7.47 16.531L3.47 12.531C3.4003 12.4613 3.34502 12.3786 3.3073 12.2876C3.26958 12.1966 3.25016 12.099 3.25016 12.0005C3.25016 11.902 3.26958 11.8044 3.3073 11.7134C3.34502 11.6224 3.4003 11.5397 3.47 11.47Z" fill="#41416E"/>
</svg>
